<?xml version="1.0" encoding="UTF-8"?>
<svg id="Capa_1" xmlns="http://www.w3.org/2000/svg" version="1.1" viewBox="0 0 720.24 720.24">
  <!-- Generator: Adobe Illustrator 30.1.0, SVG Export Plug-In . SVG Version: 2.1.1 Build 136)  -->
  <defs>
    <style>
      .st0 {
        fill: #fff;
      }

      .st0, .st1, .st2, .st3 {
        fill-rule: evenodd;
      }

      .st1 {
        fill: #646567;
      }

      .st2 {
        fill: #838588;
      }

      .st3 {
        fill: #231f20;
      }
    </style>
  </defs>
  <path class="st2" d="M360.15,93.81c147.03,0,266.4,119.37,266.4,266.4s-119.37,266.4-266.4,266.4S93.76,507.24,93.76,360.21,213.13,93.81,360.15,93.81Z"/>
  <path class="st0" d="M360.15,100.92c143.11,0,259.29,116.18,259.29,259.29s-116.18,259.29-259.29,259.29S100.86,503.31,100.86,360.21,217.05,100.92,360.15,100.92Z"/>
  <path class="st3" d="M360.15,111.73c137.14,0,248.48,111.34,248.48,248.48s-111.34,248.48-248.48,248.48-248.48-111.34-248.48-248.48,111.34-248.48,248.48-248.48Z"/>
  <path class="st1" d="M180.04,531.31c-42.35-44.57-68.36-104.82-68.36-171.1,0-28.61,4.85-56.1,13.76-81.7,26.5-22.26,51.65-44.33,73.78-60.6,3.99-2.93,12.24-4.71,18.62-5.06,14.99-.82,29.48,9.79,33.51,10.85.54.14-.58,24.49-.58,24.49l34.95-24.24,34.24,8.02,3.16,27.42,43.27-26.71s12.4,1.16,25.27,3.05c13.26,1.94,28.08,4.4,33.61,6.36,11.99,4.25,10.38,13.15,10.38,13.15l13.72-11.4,28.1,4.26,2.89,17.56,19.08-15.05,25.24,1.93-21.08,57.01.99,33.55-324.55,188.2Z"/>
  <path class="st2" d="M534.6,357.95c14.96,4.39,44.32,12.76,73.33,20.97-5.93,79.45-49.29,148.55-112.48,189.68-88.23-25.68-300.9-90.92-305.75-92.64-.57-34.32-2.61-129.06-2.61-129.06l.14.05c1.48.51,11.6,11.04,27.22,14.75,13.19,3.14,31.19-.34,42.23-1.13h.1s.02,0,.02,0l5.52-4.8c3.72,4.2,15.47,16.59,20.21,21.96l2.43,1.08,52.24-22.18,31.49,21.1,28.88-24.15,26.51,24.15s14.93-6.65,16.56-14.84c1.53-7.69,10.36-17.88,12.84-21.8l38.99,19.7s19.88-9.94,32.89-5.65c1.47.49,4.69,1.46,9.25,2.79Z"/>
  <path class="st0" d="M218.17,259.41c.31,18.54.62,37.08.93,55.62,4.54.17,9.07.33,13.61.49.77.03,6.63.24,9.58-1.63,3.11-1.98,2.82-8.45,2.81-8.94-.3-18.04-.6-36.07-.91-54.11-4.52-.48-9.04-.96-13.57-1.44-.76-.08-6.55-.7-9.56,1.01-3.23,1.83-2.91,8.58-2.9,8.99ZM182.16,279.07c-.21-12.64.15-39.23,10.08-54.01,9.64-14.35,28.48-13.09,38.27-11.68,10.54,1.52,27.86,5.81,37.01,21.22,9.07,15.28,10.48,38.08,10.7,51.31.03,1.59.37,16.51-1.59,28.61-.43,2.67-1.99,11.79-6.82,20.19-2.99,5.2-7.64,9.86-14,12.73-9.3,4.19-20.77,4.15-22.99,4.16-2.43,0-14.06.06-23.83-4.28-6.75-3-12.04-7.98-15.62-13.89-2.89-4.77-6.34-12.26-8.35-22.51-2.59-13.18-2.81-28.92-2.86-31.85Z"/>
  <path class="st0" d="M362.33,348.29c-24.84.06-49.68.12-74.52.19-.7-41.52-1.39-83.03-2.09-124.54,12.71,1.35,25.42,2.7,38.14,4.04.5,29.86,1,59.72,1.5,89.58,12.16.31,24.32.61,36.47.92.17,9.94.33,19.87.5,29.81Z"/>
  <path class="st0" d="M412.47,266.08c-4.34-.37-8.68-.74-13.02-1.11.31,18.2.61,36.41.92,54.61,4.34.12,8.67.25,13.01.37.74.02,6.34.18,9.15-1.4,2.98-1.68,2.71-7.12,2.7-7.5l-.58-34.71c0-.5.06-5.83-2.96-7.82-2.87-1.9-8.45-2.38-9.21-2.44ZM368.52,348.29l-1.94-115.67c14.98,1.72,29.97,3.43,44.95,5.15,10.16,1.16,26.85,4.44,35.38,16.28,8.92,12.38,9.77,32.76,9.92,41.45.14,8.19.08,28.88-8.54,40.41-8.25,11.03-25.16,12.29-34.9,12.31-14.95.02-29.91.05-44.86.07Z"/>
  <path class="st0" d="M478.17,247.33c2.53,12.04,7.55,27.7,10.08,39.74l.88.07c3.19-11.14,6.99-24.93,10.02-36.84,9.18,1.02,16.12,1.51,25.61,2.13-6.85,23.01-13.69,34.22-20.54,57.23.15,8.93.26,24.66.41,33.59-8.4,0-21.71.23-30.02,3.25-.15-9.22-.32-28.39-.48-37.61-5.05-15.46-13.99-31.09-24.96-65.17,9.66,1.2,19.33,2.4,28.99,3.6Z"/>
  <path class="st0" d="M256.21,433.43c-9.58-.23-23.66-.47-33.25-.7.28,14.54.55,29.09.83,43.63-11.39-.11-22.78-.21-34.17-.32-.82-44.24-1.64-88.48-2.46-132.72-.02-.94.21-1.2.54-1.37.33-.17.84-.33,1.46.32,18.1,18.96,49.28,18.15,73.31,13.5-1.21,9.85-3.36,24.54-4.57,34.39-10.43-.42-25.34-.85-35.77-1.27.1,5.27.2,10.54.3,15.81,9.58.33,23.66.67,33.24,1,.18,9.25.36,18.49.54,27.74Z"/>
  <path class="st0" d="M312.52,398.37c-2.03,10.54-4.07,21.09-6.1,31.63,5.03.13,10.06.26,15.09.39-2.4-10.65-4.79-21.3-7.19-31.95l-1.8-.07ZM297.62,476.93c-11.72-.09-23.43-.17-35.15-.26,8.26-38.17,16.51-82.75,24.77-120.92,17.05-.01,33.04.3,50.17.58,9.45,37.49,19.4,83.49,28.86,120.98-11.34-.06-22.68-.12-34.02-.17-1.37-5.96-2.74-11.93-4.11-17.89-9.02-.12-18.05-.25-27.07-.37-1.15,6.01-2.29,12.03-3.44,18.04Z"/>
  <path class="st0" d="M427.72,477.54c-3.47-5.48-12.92-20.37-24.46-38.76-1.29-1.95-1.69-7.73-1.73-8.41l-.62-.02c.33,15.7.66,31.41.99,47.11-10.5-.04-21.01-.08-31.51-.12-.77-36.9-1.53-86.61-2.3-123.52,10.9-.42,18.83-.11,29.5-.31,2.69,7.1,13.02,35.69,24.65,54.4,1.27,1.94,1.67,7.67,1.71,8.35l.61.02c-.33-15.55-.66-44.99-.99-60.54,12.77-1.22,20.61-7.19,28.25-12.96.77-.58,1.29-1.76,1.59-1.71.3.05.2,1.13.19,1.99-.34,38.26,1.81,97.24,2.62,134.53-9.5-.02-19-.04-28.5-.06Z"/>
  <path class="st0" d="M467.6,474.83c1.16-10.99,2.31-21.98,3.47-32.97,1.9.68,13.66,4.87,24.42,5.08,1.37.03,10.63.21,17.07-.85-.07-3.26-.14-9.89-.21-13.15-4.33-.63-8.66-1.27-12.99-1.9-2.14-.32-17.86-2.65-24.77-12.33-6.95-9.73-7.3-22.65-7.35-25.01-.06-2.87-.54-25.68,7.49-34.76,8.6-9.72,26.89-7.67,27.33-7.64,2.77.2,19,1.35,34.17,7.26-.94,10.24-1.88,20.48-2.83,30.73-1.67-.46-13.18-3.6-21.15-4.02-1.09-.06-8.04-.43-13.65.26.07,3.22.14,9.25.21,12.47,3.47.62,6.94,1.24,10.41,1.86,2.24.41,18.68,3.39,25.9,13.27,7.17,9.81,7.49,21.68,7.54,23.93.04,1.65.26,12.12-1.92,20.46-.28,1.08-2.19,8.36-5.38,12.68-3.2,4.34-8.38,6.33-9.21,6.64-.83.32-6.04,2.32-10.66,2.8-.99.1-4.65.49-12.41.47-2.86,0-18.96-.03-35.48-5.28Z"/>
</svg>