<?xml version="1.0" encoding="UTF-8"?>
<svg id="Capa_1" xmlns="http://www.w3.org/2000/svg" xmlns:xlink="http://www.w3.org/1999/xlink" version="1.1" viewBox="0 0 124.7 50.61">
  <!-- Generator: Adobe Illustrator 30.1.0, SVG Export Plug-In . SVG Version: 2.1.1 Build 136)  -->
  <defs>
    <style>
      .st0, .st1, .st2 {
        fill-rule: evenodd;
      }

      .st0, .st3 {
        fill: #fff;
      }

      .st4 {
        fill: #009de2;
      }

      .st5 {
        fill: #1d1d1b;
      }

      .st1, .st6 {
        fill: #898988;
      }

      .st7 {
        fill: url(#Degradado_sin_nombre_2);
      }

      .st2 {
        fill: #656464;
      }

      .st8 {
        fill: url(#Degradado_sin_nombre_27);
      }

      .st9 {
        fill: url(#Degradado_sin_nombre_24);
      }

      .st10 {
        fill: url(#Degradado_sin_nombre_26);
      }

      .st11 {
        fill: url(#Degradado_sin_nombre_23);
      }

      .st12 {
        fill: url(#Degradado_sin_nombre_25);
      }

      .st13 {
        fill: url(#Degradado_sin_nombre_22);
      }

      .st14 {
        fill: url(#Degradado_sin_nombre_21);
      }

      .st15 {
        display: none;
      }
    </style>
    <linearGradient id="Degradado_sin_nombre_2" data-name="Degradado sin nombre 2" x1="-4974.49" y1="-3876.34" x2="-4889.99" y2="-3829.23" gradientTransform="translate(5036.48 3864.56) rotate(-.25)" gradientUnits="userSpaceOnUse">
      <stop offset="0" stop-color="#fff"/>
      <stop offset="1" stop-color="#1d1d1b"/>
    </linearGradient>
    <linearGradient id="Degradado_sin_nombre_21" data-name="Degradado sin nombre 2" x1="-4970.11" y1="-3884.2" x2="-4885.61" y2="-3837.09" xlink:href="#Degradado_sin_nombre_2"/>
    <linearGradient id="Degradado_sin_nombre_22" data-name="Degradado sin nombre 2" x1="-4967.14" y1="-3889.53" x2="-4882.64" y2="-3842.42" xlink:href="#Degradado_sin_nombre_2"/>
    <linearGradient id="Degradado_sin_nombre_23" data-name="Degradado sin nombre 2" x1="-4964.75" y1="-3893.8" x2="-4880.26" y2="-3846.7" gradientTransform="translate(5019.38 3886.41)" xlink:href="#Degradado_sin_nombre_2"/>
    <linearGradient id="Degradado_sin_nombre_24" data-name="Degradado sin nombre 2" x1="-4962.17" y1="-3898.43" x2="-4877.68" y2="-3851.32" xlink:href="#Degradado_sin_nombre_2"/>
    <linearGradient id="Degradado_sin_nombre_25" data-name="Degradado sin nombre 2" x1="-4983.02" y1="-3861.03" x2="-4898.53" y2="-3813.92" xlink:href="#Degradado_sin_nombre_2"/>
    <linearGradient id="Degradado_sin_nombre_26" data-name="Degradado sin nombre 2" x1="-4979.2" y1="-3867.9" x2="-4894.7" y2="-3820.79" xlink:href="#Degradado_sin_nombre_2"/>
    <linearGradient id="Degradado_sin_nombre_27" data-name="Degradado sin nombre 2" x1="-4975.8" y1="-3873.99" x2="-4891.3" y2="-3826.89" xlink:href="#Degradado_sin_nombre_2"/>
  </defs>
  <g>
    <circle class="st6" cx="21.16" cy="26.28" r="19.17"/>
    <circle class="st3" cx="21.16" cy="26.28" r="18.66" transform="translate(-8.32 42.69) rotate(-80.25)"/>
    <circle class="st5" cx="21.16" cy="26.28" r="17.88"/>
    <path class="st2" d="M8.2,38.59c-3.05-3.21-4.92-7.54-4.92-12.31,0-2.06.35-4.04.99-5.88,1.91-1.6,3.72-3.19,5.31-4.36.29-.21.88-.34,1.34-.36,1.08-.06,2.12.7,2.41.78.04.01-.04,1.76-.04,1.76l2.51-1.74,2.46.58.23,1.97,3.11-1.92s.89.08,1.82.22c.95.14,2.02.32,2.42.46.86.31.75.95.75.95l.99-.82,2.02.31.21,1.26,1.37-1.08,1.82.14-1.52,4.1.07,2.41-23.35,13.54Z"/>
    <path class="st1" d="M33.72,26.12c1.08.32,3.19.92,5.28,1.51-.43,5.72-3.55,10.69-8.09,13.65-6.35-1.85-21.65-6.54-22-6.67-.04-2.47-.19-9.29-.19-9.29h0c.11.04.83.8,1.96,1.06.95.23,2.24-.02,3.04-.08h0s0,0,0,0l.4-.35c.27.3,1.11,1.19,1.45,1.58l.17.08,3.76-1.6,2.27,1.52,2.08-1.74,1.91,1.74s1.07-.48,1.19-1.07c.11-.55.75-1.29.92-1.57l2.81,1.42s1.43-.72,2.37-.41c.11.03.34.1.67.2Z"/>
    <path class="st0" d="M10.95,19.03c.02,1.33.04,2.67.07,4,.33.01.65.02.98.04.06,0,.48.02.69-.12.22-.14.2-.61.2-.64-.02-1.3-.04-2.6-.07-3.89-.33-.03-.65-.07-.98-.1-.06,0-.47-.05-.69.07-.23.13-.21.62-.21.65ZM8.35,20.44c-.02-.91.01-2.82.73-3.89.69-1.03,2.05-.94,2.75-.84.76.11,2,.42,2.66,1.53.65,1.1.75,2.74.77,3.69,0,.11.03,1.19-.11,2.06-.03.19-.14.85-.49,1.45-.22.37-.55.71-1.01.92-.67.3-1.49.3-1.65.3-.18,0-1.01,0-1.71-.31-.49-.22-.87-.57-1.12-1-.21-.34-.46-.88-.6-1.62-.19-.95-.2-2.08-.21-2.29Z"/>
    <path class="st0" d="M21.32,25.42c-1.79,0-3.57,0-5.36.01-.05-2.99-.1-5.97-.15-8.96.91.1,1.83.19,2.74.29.04,2.15.07,4.3.11,6.45.87.02,1.75.04,2.62.07.01.71.02,1.43.04,2.14Z"/>
    <path class="st0" d="M24.93,19.51c-.31-.03-.62-.05-.94-.08.02,1.31.04,2.62.07,3.93.31,0,.62.02.94.03.05,0,.46.01.66-.1.21-.12.19-.51.19-.54-.01-.83-.03-1.66-.04-2.5,0-.04,0-.42-.21-.56-.21-.14-.61-.17-.66-.18ZM21.76,25.42c-.05-2.77-.09-5.55-.14-8.32,1.08.12,2.16.25,3.23.37.73.08,1.93.32,2.55,1.17.64.89.7,2.36.71,2.98,0,.59,0,2.08-.61,2.91-.59.79-1.81.88-2.51.89-1.08,0-2.15,0-3.23,0Z"/>
    <path class="st0" d="M29.65,18.16c.18.87.54,1.99.73,2.86h.06c.23-.8.5-1.79.72-2.65.66.07,1.16.11,1.84.15-.49,1.66-.99,2.46-1.48,4.12.01.64.02,1.77.03,2.42-.6,0-1.56.02-2.16.23-.01-.66-.02-2.04-.03-2.71-.36-1.11-1.01-2.24-1.8-4.69.7.09,1.39.17,2.09.26Z"/>
    <path class="st0" d="M13.68,31.55c-.69-.02-1.7-.03-2.39-.05.02,1.05.04,2.09.06,3.14-.82,0-1.64-.02-2.46-.02-.06-3.18-.12-6.37-.18-9.55,0-.07.01-.09.04-.1.02-.01.06-.02.1.02,1.3,1.36,3.55,1.31,5.28.97-.09.71-.24,1.77-.33,2.47-.75-.03-1.82-.06-2.57-.09,0,.38.01.76.02,1.14.69.02,1.7.05,2.39.07.01.67.03,1.33.04,2Z"/>
    <path class="st0" d="M17.74,29.03c-.15.76-.29,1.52-.44,2.28.36,0,.72.02,1.09.03-.17-.77-.34-1.53-.52-2.3h-.13ZM16.66,34.68c-.84,0-1.69-.01-2.53-.02.59-2.75,1.19-5.95,1.78-8.7,1.23,0,2.38.02,3.61.04.68,2.7,1.4,6.01,2.08,8.71-.82,0-1.63,0-2.45-.01-.1-.43-.2-.86-.3-1.29-.65,0-1.3-.02-1.95-.03-.08.43-.17.87-.25,1.3Z"/>
    <path class="st0" d="M26.02,34.73c-.25-.39-.93-1.47-1.76-2.79-.09-.14-.12-.56-.12-.61h-.04c.02,1.13.05,2.26.07,3.39-.76,0-1.51,0-2.27,0-.06-2.66-.11-6.23-.17-8.89.78-.03,1.35,0,2.12-.02.19.51.94,2.57,1.77,3.91.09.14.12.55.12.6h.04c-.02-1.12-.05-3.24-.07-4.35.92-.09,1.48-.52,2.03-.93.06-.04.09-.13.11-.12.02,0,.01.08.01.14-.02,2.75.13,7,.19,9.68-.68,0-1.37,0-2.05,0Z"/>
    <path class="st0" d="M28.89,34.53c.08-.79.17-1.58.25-2.37.14.05.98.35,1.76.37.1,0,.76.01,1.23-.06,0-.23-.01-.71-.02-.95-.31-.05-.62-.09-.93-.14-.15-.02-1.29-.19-1.78-.89-.5-.7-.52-1.63-.53-1.8,0-.21-.04-1.85.54-2.5.62-.7,1.94-.55,1.97-.55.2.01,1.37.1,2.46.52-.07.74-.14,1.47-.2,2.21-.12-.03-.95-.26-1.52-.29-.08,0-.58-.03-.98.02,0,.23,0,.67.01.9.25.04.5.09.75.13.16.03,1.34.24,1.86.95.52.71.54,1.56.54,1.72,0,.12.02.87-.14,1.47-.02.08-.16.6-.39.91-.23.31-.6.46-.66.48-.06.02-.43.17-.77.2-.07,0-.33.03-.89.03-.21,0-1.36,0-2.55-.38Z"/>
  </g>
  <g>
    <g class="st15">
      <polygon class="st7" points="63.56 24.56 66.66 24.55 66.6 11.33 62.55 11.35 58.76 20.95 54.87 11.38 50.84 11.4 50.89 24.62 53.98 24.6 53.97 20.99 53.63 14.77 57.71 24.59 59.83 24.58 63.83 14.71 63.55 20.95 63.56 24.56"/>
      <path class="st14" d="M71.42,23.48c1.03.81,2.42,1.21,4.17,1.21s3.18-.43,4.2-1.28c1.02-.85,1.53-1.99,1.52-3.44l-.04-8.71h-3.1s.04,8.81.04,8.81c-.02,1.61-.9,2.42-2.63,2.43-.83,0-1.48-.19-1.95-.59-.47-.39-.71-1.02-.71-1.89l-.04-8.72h-3.09s.04,8.82.04,8.82c.03,1.43.56,2.55,1.59,3.36Z"/>
      <path class="st13" d="M88,13.65c.42-.28,1-.43,1.76-.43s1.39.16,1.82.5c.43.33.65.8.65,1.41h3.09c0-.81-.24-1.51-.7-2.13s-1.12-1.1-1.96-1.44c-.84-.34-1.79-.51-2.86-.5s-2.02.17-2.87.48c-.85.32-1.51.76-1.96,1.32-.45.56-.68,1.2-.68,1.91,0,1.37.86,2.46,2.57,3.27.63.29,1.47.59,2.55.89,1.07.3,1.81.59,2.23.86s.62.67.62,1.18c0,.47-.2.84-.61,1.11s-.98.4-1.72.4c-1.98,0-2.97-.72-2.97-2.17h-3.1c0,.87.26,1.62.76,2.26.5.65,1.22,1.15,2.17,1.52.95.37,2,.55,3.15.54,1.66,0,2.98-.34,3.96-.99.98-.65,1.47-1.55,1.46-2.7,0-1.03-.41-1.89-1.22-2.57-.81-.69-2.09-1.26-3.85-1.72-.95-.25-1.68-.52-2.17-.81-.49-.29-.74-.65-.74-1.08,0-.46.21-.83.62-1.11Z"/>
      <rect class="st11" x="98.26" y="11.18" width="3.09" height="13.22" transform="translate(-.08 .44) rotate(-.25)"/>
      <path class="st9" d="M112.73,21.72c-.47.39-1.18.58-2.13.59-1.06,0-1.83-.32-2.33-.98-.49-.66-.74-1.7-.75-3.13v-1c0-1.37.26-2.38.77-3.03.51-.65,1.28-.98,2.31-.99.95,0,1.65.18,2.12.57.46.38.74,1,.82,1.85h3.09c-.17-1.49-.79-2.63-1.85-3.45-1.06-.81-2.46-1.21-4.18-1.21-1.25,0-2.34.27-3.29.79-.94.52-1.66,1.27-2.17,2.24-.5.97-.75,2.09-.75,3.36v.81c.01,1.99.57,3.55,1.68,4.69,1.11,1.14,2.62,1.7,4.54,1.69,1.76,0,3.17-.42,4.24-1.24,1.07-.82,1.66-1.94,1.77-3.37h-3.09c-.07.82-.33,1.41-.8,1.8Z"/>
      <path class="st12" d="M59.6,35.62c.67-.23,1.19-.6,1.57-1.09.38-.49.56-1.07.56-1.71,0-1.19-.48-2.08-1.42-2.69-.94-.61-2.32-.91-4.14-.9l-5.25.02.06,13.22,5.83-.03c1.7-.02,3.01-.36,3.93-1.02.92-.66,1.37-1.62,1.37-2.89,0-.74-.23-1.37-.67-1.89-.44-.51-1.05-.85-1.82-1.02ZM54.01,31.43h2.16c.85-.01,1.47.12,1.87.38.4.26.59.69.6,1.29,0,1.07-.77,1.62-2.33,1.65h-2.29s-.01-3.32-.01-3.32ZM58.4,39.77c-.41.31-.97.46-1.7.47h-2.65s-.02-3.56-.02-3.56h2.83c1.42,0,2.13.61,2.14,1.82,0,.54-.2.96-.61,1.27Z"/>
      <path class="st10" d="M74.26,29.75c-.97-.53-2.08-.79-3.33-.78s-2.36.28-3.33.81c-.97.53-1.72,1.3-2.24,2.29-.53.99-.79,2.14-.78,3.44v.65c.02,1.27.29,2.39.83,3.37.54.98,1.3,1.72,2.27,2.25.98.52,2.09.78,3.33.78s2.37-.28,3.34-.81c.97-.54,1.71-1.3,2.23-2.28.52-.98.77-2.12.77-3.43v-.59c0-1.3-.28-2.44-.82-3.42-.54-.99-1.29-1.74-2.26-2.27ZM74.21,36.09c0,1.37-.28,2.42-.83,3.14s-1.35,1.08-2.38,1.09-1.87-.36-2.43-1.11c-.57-.74-.85-1.79-.86-3.14v-.64c0-1.37.28-2.42.84-3.13.56-.71,1.36-1.07,2.39-1.08s1.85.35,2.41,1.07c.57.72.85,1.77.86,3.16v.64Z"/>
      <polygon class="st8" points="91.68 29.06 88.13 29.07 85.34 33.64 82.51 29.1 78.96 29.11 83.35 35.65 78.91 42.33 82.5 42.31 85.36 37.67 88.26 42.29 91.86 42.27 87.35 35.63 91.68 29.06"/>
    </g>
    <g>
      <polygon class="st4" points="63.56 24.56 66.66 24.55 66.6 11.33 62.55 11.35 58.76 20.95 54.87 11.38 50.84 11.4 50.89 24.62 53.98 24.6 53.97 20.99 53.63 14.77 57.71 24.59 59.83 24.58 63.83 14.71 63.55 20.95 63.56 24.56"/>
      <path class="st4" d="M71.42,23.48c1.03.81,2.42,1.21,4.17,1.21s3.18-.43,4.2-1.28c1.02-.85,1.53-1.99,1.52-3.44l-.04-8.71h-3.1s.04,8.81.04,8.81c-.02,1.61-.9,2.42-2.63,2.43-.83,0-1.48-.19-1.95-.59-.47-.39-.71-1.02-.71-1.89l-.04-8.72h-3.09s.04,8.82.04,8.82c.03,1.43.56,2.55,1.59,3.36Z"/>
      <path class="st4" d="M88,13.65c.42-.28,1-.43,1.76-.43s1.39.16,1.82.5c.43.33.65.8.65,1.41h3.09c0-.81-.24-1.51-.7-2.13s-1.12-1.1-1.96-1.44c-.84-.34-1.79-.51-2.86-.5s-2.02.17-2.87.48c-.85.32-1.51.76-1.96,1.32-.45.56-.68,1.2-.68,1.91,0,1.37.86,2.46,2.57,3.27.63.29,1.47.59,2.55.89,1.07.3,1.81.59,2.23.86s.62.67.62,1.18c0,.47-.2.84-.61,1.11s-.98.4-1.72.4c-1.98,0-2.97-.72-2.97-2.17h-3.1c0,.87.26,1.62.76,2.26.5.65,1.22,1.15,2.17,1.52.95.37,2,.55,3.15.54,1.66,0,2.98-.34,3.96-.99.98-.65,1.47-1.55,1.46-2.7,0-1.03-.41-1.89-1.22-2.57-.81-.69-2.09-1.26-3.85-1.72-.95-.25-1.68-.52-2.17-.81-.49-.29-.74-.65-.74-1.08,0-.46.21-.83.62-1.11Z"/>
      <rect class="st4" x="98.26" y="11.18" width="3.09" height="13.22" transform="translate(-.08 .44) rotate(-.25)"/>
      <path class="st4" d="M112.73,21.72c-.47.39-1.18.58-2.13.59-1.06,0-1.83-.32-2.33-.98-.49-.66-.74-1.7-.75-3.13v-1c0-1.37.26-2.38.77-3.03.51-.65,1.28-.98,2.31-.99.95,0,1.65.18,2.12.57.46.38.74,1,.82,1.85h3.09c-.17-1.49-.79-2.63-1.85-3.45-1.06-.81-2.46-1.21-4.18-1.21-1.25,0-2.34.27-3.29.79-.94.52-1.66,1.27-2.17,2.24-.5.97-.75,2.09-.75,3.36v.81c.01,1.99.57,3.55,1.68,4.69,1.11,1.14,2.62,1.7,4.54,1.69,1.76,0,3.17-.42,4.24-1.24,1.07-.82,1.66-1.94,1.77-3.37h-3.09c-.07.82-.33,1.41-.8,1.8Z"/>
      <path class="st4" d="M59.6,35.62c.67-.23,1.19-.6,1.57-1.09.38-.49.56-1.07.56-1.71,0-1.19-.48-2.08-1.42-2.69-.94-.61-2.32-.91-4.14-.9l-5.25.02.06,13.22,5.83-.03c1.7-.02,3.01-.36,3.93-1.02.92-.66,1.37-1.62,1.37-2.89,0-.74-.23-1.37-.67-1.89-.44-.51-1.05-.85-1.82-1.02ZM54.01,31.43h2.16c.85-.01,1.47.12,1.87.38.4.26.59.69.6,1.29,0,1.07-.77,1.62-2.33,1.65h-2.29s-.01-3.32-.01-3.32ZM58.4,39.77c-.41.31-.97.46-1.7.47h-2.65s-.02-3.56-.02-3.56h2.83c1.42,0,2.13.61,2.14,1.82,0,.54-.2.96-.61,1.27Z"/>
      <path class="st4" d="M74.26,29.75c-.97-.53-2.08-.79-3.33-.78s-2.36.28-3.33.81c-.97.53-1.72,1.3-2.24,2.29-.53.99-.79,2.14-.78,3.44v.65c.02,1.27.29,2.39.83,3.37.54.98,1.3,1.72,2.27,2.25.98.52,2.09.78,3.33.78s2.37-.28,3.34-.81c.97-.54,1.71-1.3,2.23-2.28.52-.98.77-2.12.77-3.43v-.59c0-1.3-.28-2.44-.82-3.42-.54-.99-1.29-1.74-2.26-2.27ZM74.21,36.09c0,1.37-.28,2.42-.83,3.14s-1.35,1.08-2.38,1.09-1.87-.36-2.43-1.11c-.57-.74-.85-1.79-.86-3.14v-.64c0-1.37.28-2.42.84-3.13.56-.71,1.36-1.07,2.39-1.08s1.85.35,2.41,1.07c.57.72.85,1.77.86,3.16v.64Z"/>
      <polygon class="st4" points="91.68 29.06 88.13 29.07 85.34 33.64 82.51 29.1 78.96 29.11 83.35 35.65 78.91 42.33 82.5 42.31 85.36 37.67 88.26 42.29 91.86 42.27 87.35 35.63 91.68 29.06"/>
    </g>
  </g>
</svg>