<?xml version="1.0" encoding="UTF-8"?>
<svg id="Capa_1" xmlns="http://www.w3.org/2000/svg" xmlns:xlink="http://www.w3.org/1999/xlink" version="1.1" viewBox="0 0 164.91 39.74">
  <!-- Generator: Adobe Illustrator 30.1.0, SVG Export Plug-In . SVG Version: 2.1.1 Build 136)  -->
  <defs>
    <style>
      .st0, .st1, .st2 {
        fill-rule: evenodd;
      }

      .st0, .st3 {
        fill: #fff;
      }

      .st4 {
        fill: #009de2;
      }

      .st5 {
        fill: #1d1d1b;
      }

      .st1, .st6 {
        fill: #898988;
      }

      .st7 {
        fill: url(#Degradado_sin_nombre_3);
      }

      .st2 {
        fill: #656464;
      }

      .st8 {
        fill: url(#Degradado_sin_nombre_37);
      }

      .st9 {
        fill: url(#Degradado_sin_nombre_35);
      }

      .st10 {
        fill: url(#Degradado_sin_nombre_34);
      }

      .st11 {
        fill: url(#Degradado_sin_nombre_36);
      }

      .st12 {
        fill: url(#Degradado_sin_nombre_33);
      }

      .st13 {
        fill: url(#Degradado_sin_nombre_32);
      }

      .st14 {
        fill: url(#Degradado_sin_nombre_31);
      }

      .st15 {
        display: none;
      }
    </style>
    <linearGradient id="Degradado_sin_nombre_3" data-name="Degradado sin nombre 3" x1="-4981.98" y1="-3872.31" x2="-4897.48" y2="-3825.21" gradientTransform="translate(5036.47 3864.04) rotate(-.25)" gradientUnits="userSpaceOnUse">
      <stop offset="0" stop-color="#fff"/>
      <stop offset="1" stop-color="#1d1d1b"/>
    </linearGradient>
    <linearGradient id="Degradado_sin_nombre_31" data-name="Degradado sin nombre 3" x1="-4977.6" y1="-3880.17" x2="-4893.1" y2="-3833.06" xlink:href="#Degradado_sin_nombre_3"/>
    <linearGradient id="Degradado_sin_nombre_32" data-name="Degradado sin nombre 3" x1="-4974.63" y1="-3885.5" x2="-4890.13" y2="-3838.39" xlink:href="#Degradado_sin_nombre_3"/>
    <linearGradient id="Degradado_sin_nombre_33" data-name="Degradado sin nombre 3" x1="-4972.24" y1="-3889.78" x2="-4887.74" y2="-3842.67" gradientTransform="translate(5019.38 3885.92)" xlink:href="#Degradado_sin_nombre_3"/>
    <linearGradient id="Degradado_sin_nombre_34" data-name="Degradado sin nombre 3" x1="-4969.66" y1="-3894.4" x2="-4885.17" y2="-3847.29" xlink:href="#Degradado_sin_nombre_3"/>
    <linearGradient id="Degradado_sin_nombre_35" data-name="Degradado sin nombre 3" x1="-4990.51" y1="-3857" x2="-4906.01" y2="-3809.89" xlink:href="#Degradado_sin_nombre_3"/>
    <linearGradient id="Degradado_sin_nombre_36" data-name="Degradado sin nombre 3" x1="-4986.68" y1="-3863.87" x2="-4902.19" y2="-3816.76" xlink:href="#Degradado_sin_nombre_3"/>
    <linearGradient id="Degradado_sin_nombre_37" data-name="Degradado sin nombre 3" x1="-4983.29" y1="-3869.97" x2="-4898.79" y2="-3822.86" xlink:href="#Degradado_sin_nombre_3"/>
  </defs>
  <g>
    <circle class="st6" cx="17.03" cy="20.33" r="13.86"/>
    <circle class="st3" cx="17.03" cy="20.33" r="13.49" transform="translate(-5.89 33.67) rotate(-80.25)"/>
    <circle class="st5" cx="17.03" cy="20.33" r="12.92"/>
    <path class="st2" d="M7.66,29.23c-2.2-2.32-3.56-5.45-3.56-8.9,0-1.49.25-2.92.72-4.25,1.38-1.16,2.69-2.31,3.84-3.15.21-.15.64-.25.97-.26.78-.04,1.53.51,1.74.56.03,0-.03,1.27-.03,1.27l1.82-1.26,1.78.42.16,1.43,2.25-1.39s.65.06,1.31.16c.69.1,1.46.23,1.75.33.62.22.54.68.54.68l.71-.59,1.46.22.15.91.99-.78,1.31.1-1.1,2.97.05,1.75L7.66,29.23Z"/>
    <path class="st1" d="M26.11,20.21c.78.23,2.31.66,3.81,1.09-.31,4.13-2.56,7.73-5.85,9.87-4.59-1.34-15.65-4.73-15.9-4.82-.03-1.79-.14-6.71-.14-6.71h0c.08.03.6.58,1.42.77.69.16,1.62-.02,2.2-.06h0s0,0,0,0l.29-.25c.19.22.8.86,1.05,1.14l.13.06,2.72-1.15,1.64,1.1,1.5-1.26,1.38,1.26s.78-.35.86-.77c.08-.4.54-.93.67-1.13l2.03,1.02s1.03-.52,1.71-.29c.08.03.24.08.48.15Z"/>
    <path class="st0" d="M9.65,15.08c.02.96.03,1.93.05,2.89.24,0,.47.02.71.03.04,0,.34.01.5-.08.16-.1.15-.44.15-.46-.02-.94-.03-1.88-.05-2.81-.24-.02-.47-.05-.71-.07-.04,0-.34-.04-.5.05-.17.1-.15.45-.15.47ZM7.77,16.11c-.01-.66,0-2.04.52-2.81.5-.75,1.48-.68,1.99-.61.55.08,1.45.3,1.93,1.1.47.79.55,1.98.56,2.67,0,.08.02.86-.08,1.49-.02.14-.1.61-.35,1.05-.16.27-.4.51-.73.66-.48.22-1.08.22-1.2.22-.13,0-.73,0-1.24-.22-.35-.16-.63-.42-.81-.72-.15-.25-.33-.64-.43-1.17-.13-.69-.15-1.5-.15-1.66Z"/>
    <path class="st0" d="M17.15,19.71c-1.29,0-2.58,0-3.88,0-.04-2.16-.07-4.32-.11-6.48.66.07,1.32.14,1.98.21.03,1.55.05,3.11.08,4.66.63.02,1.26.03,1.9.05,0,.52.02,1.03.03,1.55Z"/>
    <path class="st0" d="M19.75,15.43c-.23-.02-.45-.04-.68-.06.02.95.03,1.89.05,2.84.23,0,.45.01.68.02.04,0,.33,0,.48-.07.16-.09.14-.37.14-.39l-.03-1.81s0-.3-.15-.41c-.15-.1-.44-.12-.48-.13ZM17.47,19.71c-.03-2.01-.07-4.01-.1-6.02.78.09,1.56.18,2.34.27.53.06,1.4.23,1.84.85.46.64.51,1.7.52,2.16,0,.43,0,1.5-.44,2.1-.43.57-1.31.64-1.82.64-.78,0-1.56,0-2.33,0Z"/>
    <path class="st0" d="M23.17,14.46c.13.63.39,1.44.52,2.07h.05c.17-.58.36-1.29.52-1.91.48.05.84.08,1.33.11-.36,1.2-.71,1.78-1.07,2.98,0,.46.01,1.28.02,1.75-.44,0-1.13.01-1.56.17,0-.48-.02-1.48-.02-1.96-.26-.8-.73-1.62-1.3-3.39.5.06,1.01.12,1.51.19Z"/>
    <path class="st0" d="M11.63,24.14c-.5-.01-1.23-.02-1.73-.04.01.76.03,1.51.04,2.27-.59,0-1.18-.01-1.78-.02-.04-2.3-.09-4.6-.13-6.9,0-.05.01-.06.03-.07.02,0,.04-.02.08.02.94.99,2.56.94,3.81.7-.06.51-.17,1.28-.24,1.79-.54-.02-1.32-.04-1.86-.07,0,.27.01.55.02.82.5.02,1.23.03,1.73.05,0,.48.02.96.03,1.44Z"/>
    <path class="st0" d="M14.56,22.31c-.11.55-.21,1.1-.32,1.65.26,0,.52.01.79.02-.12-.55-.25-1.11-.37-1.66h-.09ZM13.78,26.4c-.61,0-1.22,0-1.83-.01.43-1.99.86-4.3,1.29-6.29.89,0,1.72.02,2.61.03.49,1.95,1.01,4.34,1.5,6.29-.59,0-1.18,0-1.77,0-.07-.31-.14-.62-.21-.93-.47,0-.94-.01-1.41-.02-.06.31-.12.63-.18.94Z"/>
    <path class="st0" d="M20.55,26.43c-.18-.28-.67-1.06-1.27-2.02-.07-.1-.09-.4-.09-.44h-.03c.02.82.03,1.63.05,2.45-.55,0-1.09,0-1.64,0-.04-1.92-.08-4.51-.12-6.42.57-.02.98,0,1.53-.02.14.37.68,1.86,1.28,2.83.07.1.09.4.09.43h.03c-.02-.81-.03-2.34-.05-3.15.66-.06,1.07-.37,1.47-.67.04-.03.07-.09.08-.09.02,0,.01.06,0,.1-.02,1.99.09,5.06.14,7-.49,0-.99,0-1.48,0Z"/>
    <path class="st0" d="M22.62,26.29c.06-.57.12-1.14.18-1.72.1.04.71.25,1.27.26.07,0,.55.01.89-.04,0-.17,0-.51-.01-.68-.23-.03-.45-.07-.68-.1-.11-.02-.93-.14-1.29-.64-.36-.51-.38-1.18-.38-1.3,0-.15-.03-1.34.39-1.81.45-.51,1.4-.4,1.42-.4.14.01.99.07,1.78.38-.05.53-.1,1.07-.15,1.6-.09-.02-.69-.19-1.1-.21-.06,0-.42-.02-.71.01,0,.17,0,.48.01.65.18.03.36.06.54.1.12.02.97.18,1.35.69.37.51.39,1.13.39,1.24,0,.09.01.63-.1,1.06-.01.06-.11.43-.28.66-.17.23-.44.33-.48.35-.04.02-.31.12-.55.15-.05,0-.24.03-.65.02-.15,0-.99,0-1.85-.27Z"/>
  </g>
  <g>
    <g class="st15">
      <polygon class="st7" points="56.08 28.1 59.18 28.09 59.12 14.87 55.07 14.89 51.28 24.49 47.39 14.92 43.35 14.94 43.41 28.16 46.5 28.15 46.48 24.53 46.15 18.31 50.23 28.13 52.35 28.12 56.35 18.25 56.07 24.49 56.08 28.1"/>
      <path class="st14" d="M63.94,27.03c1.03.81,2.42,1.21,4.17,1.21s3.18-.43,4.2-1.28c1.02-.85,1.53-1.99,1.52-3.44l-.04-8.71h-3.1s.04,8.81.04,8.81c-.02,1.61-.9,2.42-2.63,2.43-.83,0-1.48-.19-1.95-.59-.47-.39-.71-1.02-.71-1.89l-.04-8.72h-3.09s.04,8.82.04,8.82c.03,1.43.56,2.55,1.59,3.36Z"/>
      <path class="st13" d="M80.52,17.19c.42-.28,1-.43,1.76-.43s1.39.16,1.82.5c.43.33.65.8.65,1.41h3.09c0-.81-.24-1.51-.7-2.13s-1.12-1.1-1.96-1.44c-.84-.34-1.79-.51-2.86-.5s-2.02.17-2.87.48c-.85.32-1.51.76-1.96,1.32-.45.56-.68,1.2-.68,1.91,0,1.37.86,2.46,2.57,3.27.63.29,1.47.59,2.55.89,1.07.3,1.81.59,2.23.86s.62.67.62,1.18c0,.47-.2.84-.61,1.11s-.98.4-1.72.4c-1.98,0-2.97-.72-2.97-2.17h-3.1c0,.87.26,1.62.76,2.26.5.65,1.22,1.15,2.17,1.52.95.37,2,.55,3.15.54,1.66,0,2.98-.34,3.96-.99.98-.65,1.47-1.55,1.46-2.7,0-1.03-.41-1.89-1.22-2.57-.81-.69-2.09-1.26-3.85-1.72-.95-.25-1.68-.52-2.17-.81-.49-.29-.74-.65-.74-1.08,0-.46.21-.83.62-1.11Z"/>
      <rect class="st12" x="90.78" y="14.73" width="3.09" height="13.22" transform="translate(-.09 .41) rotate(-.25)"/>
      <path class="st10" d="M105.24,25.27c-.47.39-1.18.58-2.13.59-1.06,0-1.83-.32-2.33-.98-.49-.66-.74-1.7-.75-3.13v-1c0-1.37.26-2.38.77-3.03.51-.65,1.28-.98,2.31-.99.95,0,1.65.18,2.12.57.46.38.74,1,.82,1.85h3.09c-.17-1.49-.79-2.63-1.85-3.45-1.06-.81-2.46-1.21-4.18-1.21-1.25,0-2.34.27-3.29.79-.94.52-1.66,1.27-2.17,2.24-.5.97-.75,2.09-.75,3.36v.81c.01,1.99.57,3.55,1.68,4.69,1.11,1.14,2.62,1.7,4.54,1.69,1.76,0,3.17-.42,4.24-1.24,1.07-.82,1.66-1.94,1.77-3.37h-3.09c-.07.82-.33,1.41-.8,1.8Z"/>
      <path class="st9" d="M52.12,39.16c.67-.23,1.19-.6,1.57-1.09.38-.49.56-1.07.56-1.71,0-1.19-.48-2.08-1.42-2.69-.94-.61-2.32-.91-4.14-.9l-5.25.02.06,13.22,5.83-.03c1.7-.02,3.01-.36,3.93-1.02.92-.66,1.37-1.62,1.37-2.89,0-.74-.23-1.37-.67-1.89-.44-.51-1.05-.85-1.82-1.02ZM46.53,34.97h2.16c.85-.01,1.47.12,1.87.38.4.26.59.69.6,1.29,0,1.07-.77,1.62-2.33,1.65h-2.29s-.01-3.32-.01-3.32ZM50.92,43.32c-.41.31-.97.46-1.7.47h-2.65s-.02-3.56-.02-3.56h2.83c1.42,0,2.13.61,2.14,1.82,0,.54-.2.96-.61,1.27Z"/>
      <path class="st11" d="M66.78,33.29c-.97-.53-2.08-.79-3.33-.78s-2.36.28-3.33.81c-.97.53-1.72,1.3-2.24,2.29-.53.99-.79,2.14-.78,3.44v.65c.02,1.27.29,2.39.83,3.37.54.98,1.3,1.72,2.27,2.25.98.52,2.09.78,3.33.78s2.37-.28,3.34-.81c.97-.54,1.71-1.3,2.23-2.28.52-.98.77-2.12.77-3.43v-.59c0-1.3-.28-2.44-.82-3.42-.54-.99-1.29-1.74-2.26-2.27ZM66.73,39.63c0,1.37-.28,2.42-.83,3.14s-1.35,1.08-2.38,1.09-1.87-.36-2.43-1.11c-.57-.74-.85-1.79-.86-3.14v-.64c0-1.37.28-2.42.84-3.13.56-.71,1.36-1.07,2.39-1.08s1.85.35,2.41,1.07c.57.72.85,1.77.86,3.16v.64Z"/>
      <polygon class="st8" points="84.2 32.6 80.65 32.61 77.86 37.18 75.03 32.64 71.48 32.65 75.87 39.19 71.43 45.87 75.02 45.86 77.88 41.21 80.78 45.83 84.37 45.81 79.87 39.17 84.2 32.6"/>
    </g>
    <g>
      <g>
        <polygon class="st4" points="56.08 27.84 59.18 27.83 59.12 14.61 55.07 14.63 51.28 24.23 47.39 14.66 43.35 14.68 43.41 27.9 46.5 27.89 46.48 24.27 46.15 18.05 50.23 27.87 52.35 27.86 56.35 17.99 56.07 24.23 56.08 27.84"/>
        <path class="st4" d="M63.94,26.76c1.03.81,2.42,1.21,4.17,1.21s3.18-.43,4.2-1.28c1.02-.85,1.53-1.99,1.52-3.44l-.04-8.71h-3.1s.04,8.81.04,8.81c-.02,1.61-.9,2.42-2.63,2.43-.83,0-1.48-.19-1.95-.59-.47-.39-.71-1.02-.71-1.89l-.04-8.72h-3.09s.04,8.82.04,8.82c.03,1.43.56,2.55,1.59,3.36Z"/>
        <path class="st4" d="M80.52,16.93c.42-.28,1-.43,1.76-.43s1.39.16,1.82.5c.43.33.65.8.65,1.41h3.09c0-.81-.24-1.51-.7-2.13s-1.12-1.1-1.96-1.44c-.84-.34-1.79-.51-2.86-.5s-2.02.17-2.87.48c-.85.32-1.51.76-1.96,1.32-.45.56-.68,1.2-.68,1.91,0,1.37.86,2.46,2.57,3.27.63.29,1.47.59,2.55.89,1.07.3,1.81.59,2.23.86s.62.67.62,1.18c0,.47-.2.84-.61,1.11s-.98.4-1.72.4c-1.98,0-2.97-.72-2.97-2.17h-3.1c0,.87.26,1.62.76,2.26.5.65,1.22,1.15,2.17,1.52.95.37,2,.55,3.15.54,1.66,0,2.98-.34,3.96-.99.98-.65,1.47-1.55,1.46-2.7,0-1.03-.41-1.89-1.22-2.57-.81-.69-2.09-1.26-3.85-1.72-.95-.25-1.68-.52-2.17-.81-.49-.29-.74-.65-.74-1.08,0-.46.21-.83.62-1.11Z"/>
        <rect class="st4" x="90.78" y="14.47" width="3.09" height="13.22" transform="translate(-.09 .41) rotate(-.25)"/>
        <path class="st4" d="M105.24,25.01c-.47.39-1.18.58-2.13.59-1.06,0-1.83-.32-2.33-.98-.49-.66-.74-1.7-.75-3.13v-1c0-1.37.26-2.38.77-3.03.51-.65,1.28-.98,2.31-.99.95,0,1.65.18,2.12.57.46.38.74,1,.82,1.85h3.09c-.17-1.49-.79-2.63-1.85-3.45-1.06-.81-2.46-1.21-4.18-1.21-1.25,0-2.34.27-3.29.79-.94.52-1.66,1.27-2.17,2.24-.5.97-.75,2.09-.75,3.36v.81c.01,1.99.57,3.55,1.68,4.69,1.11,1.14,2.62,1.7,4.54,1.69,1.76,0,3.17-.42,4.24-1.24,1.07-.82,1.66-1.94,1.77-3.37h-3.09c-.07.82-.33,1.41-.8,1.8Z"/>
      </g>
      <g>
        <path class="st4" d="M126.65,20.89c.67-.23,1.19-.6,1.57-1.09.38-.49.56-1.07.56-1.71,0-1.19-.48-2.08-1.42-2.69-.94-.61-2.32-.91-4.14-.9l-5.25.02.06,13.22,5.83-.03c1.7-.02,3.01-.36,3.93-1.02.92-.66,1.37-1.62,1.37-2.89,0-.74-.23-1.37-.67-1.89-.44-.51-1.05-.85-1.82-1.02ZM121.07,16.7h2.16c.85-.01,1.47.12,1.87.38.4.26.59.69.6,1.29,0,1.07-.77,1.62-2.33,1.65h-2.29s-.01-3.32-.01-3.32ZM125.45,25.04c-.41.31-.97.46-1.7.47h-2.65s-.02-3.56-.02-3.56h2.83c1.42,0,2.13.61,2.14,1.82,0,.54-.2.96-.61,1.27Z"/>
        <path class="st4" d="M141.32,15.02c-.97-.53-2.08-.79-3.33-.78s-2.36.28-3.33.81c-.97.53-1.72,1.3-2.24,2.29-.53.99-.79,2.14-.78,3.44v.65c.02,1.27.29,2.39.83,3.37.54.98,1.3,1.72,2.27,2.25.98.52,2.09.78,3.33.78s2.37-.28,3.34-.81c.97-.54,1.71-1.3,2.23-2.28.52-.98.77-2.12.77-3.43v-.59c0-1.3-.28-2.44-.82-3.42-.54-.99-1.29-1.74-2.26-2.27ZM141.27,21.36c0,1.37-.28,2.42-.83,3.14-.55.72-1.35,1.08-2.38,1.09s-1.87-.36-2.43-1.11c-.57-.74-.85-1.79-.86-3.14v-.64c0-1.37.28-2.42.84-3.13.56-.71,1.36-1.07,2.39-1.08s1.85.35,2.41,1.07c.57.72.85,1.77.86,3.16v.64Z"/>
        <polygon class="st4" points="158.74 14.33 155.19 14.34 152.4 18.91 149.57 14.37 146.02 14.38 150.41 20.92 145.96 27.6 149.55 27.58 152.42 22.94 155.32 27.56 158.91 27.54 154.4 20.9 158.74 14.33"/>
      </g>
    </g>
  </g>
</svg>